<?xml version="1.0" encoding="UTF-8"?>
<svg version="1.1" xmlns="http://www.w3.org/2000/svg" width="180" height="94">
<path d="M0 0 C-1.24976756 3.65316671 -1.67098753 4.78065836 -5 7 C-5.845625 6.484375 -6.69125 5.96875 -7.5625 5.4375 C-11.58736786 3.75437344 -13.80214298 4.07647145 -18 5 C-18 6.32 -18 7.64 -18 9 C-16.96359375 9.30292969 -15.9271875 9.60585938 -14.859375 9.91796875 C-13.4893069 10.34025001 -12.11953013 10.76347727 -10.75 11.1875 C-10.06808594 11.38408203 -9.38617187 11.58066406 -8.68359375 11.78320312 C-4.01793342 13.2553775 -1.58088488 14.83728245 1 19 C2.11571103 23.09094043 2.27351033 25.25144541 0.8125 29.25 C-1.68244242 33.03542989 -3.72594974 34.57531658 -8 36 C-14.9132388 36.74903653 -20.18840074 35.90288774 -26 32 C-26.66 31.34 -27.32 30.68 -28 30 C-27.875 28.0625 -27.875 28.0625 -27 26 C-24.9375 24.25 -24.9375 24.25 -23 23 C-22.319375 23.639375 -21.63875 24.27875 -20.9375 24.9375 C-17.48273738 27.36318439 -15.19013721 27.84480973 -11 28 C-10.01 27.34 -9.02 26.68 -8 26 C-8 24.68 -8 23.36 -8 22 C-9.12019531 21.61328125 -10.24039062 21.2265625 -11.39453125 20.828125 C-12.86742909 20.30276016 -14.34007226 19.77668095 -15.8125 19.25 C-16.55048828 18.99734375 -17.28847656 18.7446875 -18.04882812 18.484375 C-25.03761845 15.95449615 -25.03761845 15.95449615 -27 12 C-27.51171875 9.78125 -27.51171875 9.78125 -27.6875 7.5 C-27.75324219 6.7471875 -27.81898437 5.994375 -27.88671875 5.21875 C-27.99243414 3.1481864 -28 1.07326056 -28 -1 C-17.57660507 -4.72580925 -9.74256919 -5.77337433 0 0 Z " fill="#FCFCFC" transform="translate(41,31)"/>
<path d="M0 0 C3.71707928 3.08862464 5.64540784 5.1344728 6.1328125 10.15234375 C6.3041912 16.61061493 5.9568204 20.56790614 1.89453125 25.69921875 C-2.21440096 28.6614722 -5.97732462 29.22963294 -10.92578125 29.0546875 C-15.30748278 28.34010894 -18.07006646 25.87743515 -20.91796875 22.63671875 C-23.43865349 18.52402259 -23.57940167 14.38684623 -23.10546875 9.69921875 C-21.46805693 4.52844458 -19.70905921 1.6185688 -15.10546875 -1.30078125 C-10.03074564 -2.92595084 -4.60352235 -2.84410564 0 0 Z M-12.41796875 5.69921875 C-14.87800989 8.61482307 -14.97566963 10.93504434 -15.10546875 14.69921875 C-14.18871353 17.87260221 -13.44206038 19.36262712 -11.10546875 21.69921875 C-7.57084288 21.69432724 -7.57084288 21.69432724 -4.10546875 20.69921875 C-1.95368584 18.26676851 -2.08799184 16.45454197 -1.85546875 13.19921875 C-2.05536464 9.06246672 -2.05536464 9.06246672 -4.10546875 5.69921875 C-7.39053098 4.62800281 -9.21745283 4.31521187 -12.41796875 5.69921875 Z " fill="#FCFCFC" transform="translate(69.10546875,38.30078125)"/>
<path d="M0 0 C0.85464844 0.04382812 1.70929688 0.08765625 2.58984375 0.1328125 C6.18809157 1.21285529 7.19166914 2.63588653 9.0625 5.875 C9.65519582 8.81305229 9.75733823 11.69622762 9.8125 14.6875 C9.84214844 15.47576172 9.87179688 16.26402344 9.90234375 17.07617188 C9.97261293 19.00857446 10.01987134 20.94179015 10.0625 22.875 C11.0525 23.205 12.0425 23.535 13.0625 23.875 C13.0625 25.855 13.0625 27.835 13.0625 29.875 C9.3608569 30.82193195 7.67137535 31.17943767 4.1875 29.4375 C3.48625 28.921875 2.785 28.40625 2.0625 27.875 C1.546875 28.37 1.03125 28.865 0.5 29.375 C-2.81582303 31.41550648 -5.10441031 31.21724015 -8.9375 30.875 C-12.31781589 29.68732145 -12.86966817 28.97674775 -14.9375 25.875 C-15.33643238 22.78327407 -15.57877192 20.83293895 -14.9375 17.875 C-10.71839555 12.89862039 -6.24960233 11.8148019 0.0625 10.875 C0.0625 9.885 0.0625 8.895 0.0625 7.875 C-4.2552458 8.38297009 -7.97052114 9.07182779 -11.9375 10.875 C-13.9375 7.875 -13.9375 7.875 -13.875 5.875 C-12.53811462 3.02297785 -10.70753193 2.26001596 -7.9375 0.875 C-4.9000336 -0.1374888 -3.15060467 -0.21793656 0 0 Z M-3 17.375 C-4.10021484 17.79265625 -4.10021484 17.79265625 -5.22265625 18.21875 C-5.78855469 18.4353125 -6.35445312 18.651875 -6.9375 18.875 C-6.9375 20.525 -6.9375 22.175 -6.9375 23.875 C-4.58382287 24.5628236 -4.58382287 24.5628236 -1.9375 24.875 C-0.9475 24.215 0.0425 23.555 1.0625 22.875 C1.79856499 19.30730448 1.79856499 19.30730448 2.0625 15.875 C0.27368763 15.875 -1.3458068 16.74483116 -3 17.375 Z " fill="#FCFCFC" transform="translate(127.9375,36.125)"/>
<path d="M0 0 C2.86942113 2.26533247 3.83907612 3.51722837 5 7 C5.08178114 8.70016844 5.10749501 10.40336297 5.09765625 12.10546875 C5.09443359 13.08837891 5.09121094 14.07128906 5.08789062 15.08398438 C5.07951172 16.10814453 5.07113281 17.13230469 5.0625 18.1875 C5.05798828 19.22326172 5.05347656 20.25902344 5.04882812 21.32617188 C5.0370401 23.88417266 5.02058515 26.44205733 5 29 C2.36 29 -0.28 29 -3 29 C-3.33 21.74 -3.66 14.48 -4 7 C-10.54107344 7.18246165 -10.54107344 7.18246165 -12.3984375 9.515625 C-13.3008601 13.24251312 -13.47285002 16.92723168 -13.625 20.75 C-13.68300781 21.93916016 -13.68300781 21.93916016 -13.7421875 23.15234375 C-13.836108 25.10119416 -13.91912822 27.05056451 -14 29 C-16.64 29 -19.28 29 -22 29 C-22 19.43 -22 9.86 -22 0 C-19.36 0 -16.72 0 -14 0 C-13.67 0.66 -13.34 1.32 -13 2 C-12.154375 1.484375 -11.30875 0.96875 -10.4375 0.4375 C-6.31331868 -1.28715764 -4.27739611 -1.18816558 0 0 Z " fill="#FDFDFD" transform="translate(103,37)"/>
<path d="M0 0 C2.64 0 5.28 0 8 0 C8.33 11.22 8.66 22.44 9 34 C9.99 34.33 10.98 34.66 12 35 C12.38133299 36.9914056 12.71325582 38.99279077 13 41 C12 42 12 42 8.75 42.375 C5 42 5 42 2.29614258 40.01293945 C-0.76366453 35.99793897 -0.64978001 33.32132316 -0.48828125 28.41796875 C-0.48120651 27.60378983 -0.47413177 26.7896109 -0.46684265 25.95075989 C-0.43895598 23.36205357 -0.37623316 20.77554727 -0.3125 18.1875 C-0.2874095 16.42776572 -0.26459764 14.66799737 -0.24414062 12.90820312 C-0.18914872 8.60462704 -0.10291992 4.3026859 0 0 Z " fill="#FBFCFC" transform="translate(145,25)"/>
<path d="M0 0 C2.5 0.25 2.5 0.25 4.5 2.25 C4.8125 5.25 4.8125 5.25 4.5 8.25 C1.5 10.25 1.5 10.25 -1.0625 10.0625 C-3.5 9.25 -3.5 9.25 -5.5 6.25 C-5.04523279 2.49817053 -4.00542288 0.40054229 0 0 Z " fill="#FCFCFC" transform="translate(165.5,56.75)"/>
</svg>
